<svg width="132" height="122" viewBox="0 0 132 122" fill="none" xmlns="http://www.w3.org/2000/svg">
<g clip-path="url(#clip0_296_588)">
<path d="M-16.8129 60.7965L47.6964 58.7252L-14.0771 40.0305C-14.3166 39.9466 -14.2208 39.5815 -13.9694 39.6354L48.8757 54.3314L-5.95361 20.2821C-6.16912 20.1384 -5.97756 19.8152 -5.75008 19.9229L51.1505 50.3805L7.00092 3.29934C6.8333 3.10778 7.09671 2.83841 7.29426 3.00602L54.3712 47.154L23.9125 -9.74451C23.7987 -9.97199 24.128 -10.1635 24.2716 -9.94804L58.3222 44.8793L43.6256 -17.9635C43.5777 -18.2149 43.9369 -18.3107 44.0207 -18.0713L62.7162 43.7L64.7935 -20.8069C64.8114 -21.0644 65.1886 -21.0644 65.2065 -20.8069L67.2778 43.7L85.9733 -18.0713C86.0571 -18.3107 86.4223 -18.2149 86.3684 -17.9635L71.6718 44.8793L105.722 -9.94804C105.866 -10.1635 106.189 -9.97199 106.082 -9.74451L75.6228 47.154L122.7 3.00602C122.891 2.83841 123.161 3.1018 122.993 3.29934L78.8435 50.3746L135.744 19.9169C135.972 19.8032 136.163 20.1324 135.948 20.2761L81.1183 54.3254L143.963 39.6294C144.215 39.5815 144.311 39.9407 144.071 40.0245L82.2977 58.7193L146.807 60.7965C147.064 60.8144 147.064 61.1916 146.807 61.2095L82.2977 63.2807L144.071 81.9755C144.317 82.0593 144.215 82.4245 143.963 82.3706L81.1183 67.6746L135.948 101.724C136.163 101.868 135.972 102.191 135.744 102.083L78.8435 71.6254L122.993 118.701C123.161 118.892 122.897 119.162 122.7 118.994L75.6228 74.846L106.082 131.744C106.195 131.972 105.866 132.164 105.722 131.948L71.6718 77.1207L86.3684 139.964C86.4163 140.215 86.0571 140.311 85.9733 140.071L67.2778 78.3L65.2065 142.807C65.1886 143.064 64.8114 143.064 64.7935 142.807L62.7222 78.3L44.0267 140.071C43.9429 140.317 43.5777 140.215 43.6316 139.964L58.3282 77.1207L24.2776 131.948C24.134 132.164 23.8107 131.972 23.9184 131.744L54.3772 74.846L7.30024 118.994C7.10868 119.162 6.83929 118.898 7.0069 118.701L51.1565 71.6254L-5.74409 102.083C-5.97157 102.197 -6.16314 101.868 -5.94763 101.724L48.8817 67.6746L-13.9634 82.3706C-14.2148 82.4185 -14.3106 82.0593 -14.0711 81.9755L47.7024 63.2807L-16.8069 61.2095C-17.0643 61.1916 -17.0643 60.8144 -16.8069 60.7965H-16.8129ZM66.1883 62.5504L66.5475 62.1912L66.8049 61.7483L66.9366 61.2574V60.7486L66.8049 60.2577L66.5475 59.8147L66.1883 59.4556L65.7453 59.1982L65.2544 59.0665H64.7456L64.2547 59.1982L63.8117 59.4556L63.4525 59.8147L63.1951 60.2577L63.0634 60.7486V61.2574L63.1951 61.7483L63.4525 62.1912L63.8117 62.5504L64.2547 62.8078L64.7456 62.9395H65.2544L65.7453 62.8078L66.1883 62.5504Z" fill="url(#paint0_radial_296_588)" fill-opacity="0.16"/>
<path d="M42.3279 91.7245L44.3292 90.9431C45.2104 90.598 45.2278 89.3564 44.3552 88.9874L42.2346 88.091C41.972 87.9803 41.7658 87.7676 41.6616 87.5028L40.9453 85.6708C40.6002 84.7896 39.3586 84.7722 38.9896 85.6448L38.1626 87.6004C38.0563 87.8544 37.8544 88.0541 37.6004 88.1626L35.6448 88.9896C34.7722 89.3586 34.7896 90.6002 35.6708 90.9453L37.5028 91.6616C37.7676 91.7658 37.9803 91.972 38.091 92.2346L38.9874 94.3552C39.3564 95.2278 40.598 95.2104 40.9431 94.3292L41.7245 92.3279C41.8309 92.0523 42.0479 91.8352 42.3236 91.7289L42.3279 91.7245Z" fill="white" fill-opacity="0.52"/>
<path d="M93.8623 35.3796L95.4634 34.7545C96.1684 34.4784 96.1822 33.4851 95.4842 33.1899L93.7877 32.4728C93.5776 32.3842 93.4126 32.2141 93.3293 32.0022L92.7562 30.5366C92.4801 29.8316 91.4869 29.8178 91.1917 30.5158L90.5301 32.0804C90.445 32.2835 90.2835 32.4433 90.0804 32.5301L88.5158 33.1917C87.8178 33.4869 87.8316 34.4801 88.5366 34.7562L90.0022 35.3293C90.2141 35.4126 90.3842 35.5776 90.4728 35.7877L91.1899 37.4842C91.4851 38.1822 92.4784 38.1684 92.7545 37.4634L93.3796 35.8623C93.4647 35.6418 93.6383 35.4682 93.8589 35.3831L93.8623 35.3796Z" fill="white" fill-opacity="0.32"/>
<path d="M31.3968 83.0347L32.5975 82.5659C33.1263 82.3588 33.1367 81.6139 32.6131 81.3925L31.3408 80.8546C31.1832 80.7882 31.0595 80.6605 30.9969 80.5017L30.5672 79.4025C30.3601 78.8737 29.6152 78.8633 29.3938 79.3869L28.8976 80.5603C28.8338 80.7126 28.7126 80.8325 28.5603 80.8976L27.3869 81.3938C26.8633 81.6152 26.8737 82.3601 27.4025 82.5672L28.5017 82.9969C28.6605 83.0595 28.7882 83.1832 28.8546 83.3408L29.3925 84.6131C29.6139 85.1367 30.3588 85.1263 30.5659 84.5975L31.0347 83.3968C31.0985 83.2314 31.2288 83.1011 31.3942 83.0373L31.3968 83.0347Z" fill="white" fill-opacity="0.32"/>
</g>
<defs>
<radialGradient id="paint0_radial_296_588" cx="0" cy="0" r="1" gradientUnits="userSpaceOnUse" gradientTransform="translate(65 61) rotate(90) scale(53.5733)">
<stop stop-color="white"/>
<stop offset="1" stop-color="white" stop-opacity="0"/>
</radialGradient>
<clipPath id="clip0_296_588">
<rect width="132" height="122" fill="white"/>
</clipPath>
</defs>
</svg>
